<?xml version="1.0" encoding="utf-8"?>
<!-- Generator: Adobe Illustrator 26.0.2, SVG Export Plug-In . SVG Version: 6.00 Build 0)  -->
<svg version="1.1" id="Ebene_1" xmlns="http://www.w3.org/2000/svg" xmlns:xlink="http://www.w3.org/1999/xlink" x="0px" y="0px"
	 viewBox="0 0 700 700" style="enable-background:new 0 0 700 700;" xml:space="preserve">
<style type="text/css">
	.st0{fill:#FFFFFF;}
</style>
<path class="st0" d="M472.4,317.6L472.4,317.6c-6.1,0-11.9,0.8-17.6,2.2l-35.6-69.6h49.6c6.2,0,11.2,5,11.2,11.2
	c0,6.2-5,11.2-11.2,11.2s-11.2,5-11.2,11.2c0,6.2,5,11.2,11.2,11.2c18.5,0,33.6-15.1,33.6-33.6s-15.1-33.6-33.6-33.6h-67.2
	c-3.8,0-7.4,2-9.5,5.2s-2.3,7.3-0.7,10.8l16.7,29.1h-96l-9.2-25.4h15.5c6.2,0,11.2-5,11.2-11.2s-5-11.2-11.2-11.2h-56
	c-6.2,0-11.2,5-11.2,11.2s5,11.2,11.2,11.2h15.5l14.6,36.1l-23.3,38.8c-8-3-16.5-4.7-25.5-4.7c-40.1,0-72.8,32.7-72.8,72.8
	s32.7,72.8,72.8,72.8c34.4,0,63.2-23.9,70.8-56h31.4c3.8,0,7.4-2,9.5-5.2l69-94.7l9.9,21.3c-20.7,12.9-34.6,35.7-34.6,61.8
	c0,40.1,32.7,72.8,72.8,72.8s72.8-32.7,72.8-72.8C545.2,350.3,512.5,317.6,472.4,317.6z M243.6,440.8L243.6,440.8
	c-27.8,0-50.4-22.6-50.4-50.4s22.6-50.4,50.4-50.4c4.8,0,9.3,0.9,13.7,2.1l-28.9,48.1c-2.1,3.5-2.1,7.8-0.1,11.3s5.7,5.7,9.7,5.7
	h52.9C283.9,426.7,265.5,440.8,243.6,440.8z M293.4,384.8h-35.6l19.1-31.9C286,360.9,292,372.1,293.4,384.8L293.4,384.8z
	 M288.7,333.3l15-24.9l29.7,76.4h-17.2C314.5,364,304.1,345.6,288.7,333.3z M350.9,369.4L322,295.2h83.3L350.9,369.4z M472.4,440.8
	L472.4,440.8c-27.8,0-50.4-22.6-50.4-50.4c0-17.1,8.6-32.2,21.7-41.4l24.1,51.7c1.9,4.1,5.9,6.5,10.2,6.5c1.6,0,3.2-0.3,4.7-1.1
	c5.6-2.6,8-9.3,5.4-14.9l-23.6-50.5c2.6-0.4,5.1-0.8,7.8-0.8c27.8,0,50.4,22.6,50.4,50.4C522.8,418.2,500.2,440.8,472.4,440.8z"/>
<g>
	<path class="st0" d="M358.1,636c-78,0-151.3-30.4-206.5-85.5C96.5,495.3,66.1,422,66.1,344c0-78,30.4-151.3,85.5-206.5
		C206.8,82.4,280.1,52,358.1,52c78,0,151.3,30.4,206.5,85.5c55.2,55.2,85.5,128.5,85.5,206.5c0,78-30.4,151.3-85.5,206.5
		C509.4,605.6,436.1,636,358.1,636z M358.1,72c-72.7,0-141,28.3-192.3,79.7C114.4,203,86.1,271.3,86.1,344s28.3,141,79.7,192.3
		c51.4,51.4,119.7,79.7,192.3,79.7s141-28.3,192.3-79.7c51.4-51.4,79.7-119.7,79.7-192.3s-28.3-141-79.7-192.3
		C499.1,100.3,430.8,72,358.1,72z"/>
</g>
</svg>
