<?xml version="1.0" encoding="utf-8"?>
<!-- Generator: Adobe Illustrator 26.0.2, SVG Export Plug-In . SVG Version: 6.00 Build 0)  -->
<svg version="1.1" id="Ebene_1" xmlns="http://www.w3.org/2000/svg" xmlns:xlink="http://www.w3.org/1999/xlink" x="0px" y="0px"
	 viewBox="0 0 700 700" style="enable-background:new 0 0 700 700;" xml:space="preserve">
<style type="text/css">
	.st0{fill:#FFFFFF;}
</style>
<path class="st0" d="M472.4,257.6L472.4,257.6c-6.1,0-11.9,0.8-17.6,2.2l-35.6-69.6h49.6c6.2,0,11.2,5,11.2,11.2
	c0,6.2-5,11.2-11.2,11.2c-6.2,0-11.2,5-11.2,11.2c0,6.2,5,11.2,11.2,11.2c18.5,0,33.6-15.1,33.6-33.6c0-18.5-15.1-33.6-33.6-33.6
	l-67.2,0c-3.8,0-7.4,2-9.5,5.2c-2.1,3.2-2.3,7.3-0.7,10.8l16.7,29.1h-96l-9.2-25.4l15.5,0c6.2,0,11.2-5,11.2-11.2
	c0-6.2-5-11.2-11.2-11.2h-56c-6.2,0-11.2,5-11.2,11.2c0,6.2,5,11.2,11.2,11.2h15.5l14.6,36.1l-23.3,38.8c-8-3-16.5-4.7-25.5-4.7
	c-40.1,0-72.8,32.7-72.8,72.8s32.7,72.8,72.8,72.8c34.4,0,63.2-23.9,70.8-56l31.4,0c3.8,0,7.4-2,9.5-5.2l69-94.7l9.9,21.3
	c-20.7,12.9-34.6,35.7-34.6,61.8c0,40.1,32.7,72.8,72.8,72.8s72.8-32.7,72.8-72.8C545.2,290.3,512.5,257.6,472.4,257.6z
	 M243.6,380.8L243.6,380.8c-27.8,0-50.4-22.6-50.4-50.4c0-27.8,22.6-50.4,50.4-50.4c4.8,0,9.3,0.9,13.7,2.1l-28.9,48.1
	c-2.1,3.5-2.1,7.8-0.1,11.3c2,3.5,5.7,5.7,9.7,5.7h52.9C283.9,366.7,265.5,380.8,243.6,380.8z M293.4,324.8h-35.6l19.1-31.9
	C286,300.9,292,312.1,293.4,324.8L293.4,324.8z M288.7,273.3l15-24.9l29.7,76.4h-17.2C314.5,304,304.1,285.6,288.7,273.3z
	 M350.9,309.4l-28.9-74.2h83.3L350.9,309.4z M472.4,380.8L472.4,380.8c-27.8,0-50.4-22.6-50.4-50.4c0-17.1,8.6-32.2,21.7-41.4
	l24.1,51.7c1.9,4.1,5.9,6.5,10.2,6.5c1.6,0,3.2-0.3,4.7-1.1c5.6-2.6,8-9.3,5.4-14.9l-23.6-50.5c2.6-0.4,5.1-0.8,7.8-0.8
	c27.8,0,50.4,22.6,50.4,50.4C522.8,358.2,500.2,380.8,472.4,380.8z"/>
</svg>
